<?xml version="1.0" encoding="UTF-8"?>
<svg xmlns="http://www.w3.org/2000/svg" version="1.1" width="500" height="500" viewBox="0 0 500 500"><rect x="0" y="0" width="500" height="500" fill="#ffffff"/><g transform="scale(15.152)"><g transform="translate(0,0)"><path fill-rule="evenodd" d="M10 0L10 2L11 2L11 0ZM12 0L12 1L13 1L13 2L12 2L12 4L13 4L13 3L14 3L14 4L15 4L15 5L18 5L18 7L19 7L19 5L20 5L20 4L18 4L18 3L17 3L17 4L16 4L16 2L19 2L19 3L20 3L20 2L19 2L19 1L21 1L21 3L22 3L22 4L21 4L21 6L20 6L20 8L19 8L19 10L18 10L18 8L17 8L17 6L16 6L16 9L12 9L12 7L13 7L13 5L11 5L11 6L10 6L10 4L11 4L11 3L8 3L8 4L9 4L9 5L8 5L8 7L9 7L9 8L6 8L6 9L5 9L5 8L0 8L0 9L2 9L2 10L3 10L3 11L1 11L1 10L0 10L0 12L1 12L1 13L0 13L0 14L2 14L2 18L1 18L1 19L0 19L0 25L1 25L1 21L3 21L3 20L4 20L4 22L2 22L2 23L3 23L3 24L2 24L2 25L3 25L3 24L4 24L4 22L5 22L5 23L7 23L7 24L5 24L5 25L8 25L8 27L9 27L9 28L8 28L8 33L9 33L9 31L10 31L10 33L12 33L12 31L13 31L13 30L11 30L11 27L10 27L10 25L12 25L12 26L13 26L13 27L12 27L12 29L13 29L13 28L14 28L14 29L19 29L19 30L18 30L18 31L19 31L19 32L16 32L16 30L15 30L15 31L14 31L14 32L16 32L16 33L19 33L19 32L20 32L20 31L19 31L19 30L21 30L21 28L22 28L22 27L21 27L21 26L22 26L22 25L20 25L20 24L24 24L24 25L23 25L23 27L24 27L24 30L23 30L23 29L22 29L22 30L23 30L23 33L27 33L27 32L28 32L28 33L29 33L29 32L31 32L31 33L32 33L32 32L31 32L31 31L27 31L27 30L29 30L29 26L30 26L30 28L31 28L31 29L30 29L30 30L33 30L33 29L32 29L32 28L33 28L33 27L32 27L32 26L33 26L33 23L31 23L31 21L30 21L30 20L31 20L31 19L32 19L32 20L33 20L33 19L32 19L32 18L33 18L33 16L32 16L32 14L33 14L33 13L32 13L32 12L31 12L31 11L30 11L30 12L28 12L28 11L29 11L29 10L28 10L28 8L27 8L27 9L26 9L26 8L25 8L25 6L24 6L24 7L23 7L23 5L24 5L24 4L25 4L25 2L24 2L24 4L23 4L23 3L22 3L22 2L23 2L23 1L24 1L24 0L19 0L19 1L16 1L16 0ZM8 1L8 2L9 2L9 1ZM14 2L14 3L15 3L15 2ZM22 4L22 5L23 5L23 4ZM9 6L9 7L10 7L10 6ZM11 6L11 7L12 7L12 6ZM14 6L14 8L15 8L15 6ZM21 6L21 7L22 7L22 6ZM10 8L10 9L9 9L9 10L8 10L8 9L6 9L6 10L5 10L5 9L4 9L4 11L3 11L3 12L4 12L4 14L3 14L3 13L2 13L2 14L3 14L3 15L4 15L4 14L5 14L5 15L6 15L6 16L7 16L7 15L8 15L8 16L9 16L9 17L8 17L8 18L9 18L9 17L10 17L10 14L13 14L13 15L12 15L12 17L11 17L11 18L10 18L10 19L11 19L11 20L9 20L9 19L8 19L8 20L7 20L7 19L6 19L6 18L7 18L7 17L6 17L6 18L5 18L5 19L4 19L4 20L5 20L5 22L13 22L13 23L12 23L12 25L15 25L15 26L16 26L16 28L18 28L18 27L17 27L17 26L18 26L18 25L17 25L17 24L18 24L18 23L17 23L17 22L16 22L16 20L15 20L15 19L14 19L14 20L13 20L13 21L12 21L12 19L13 19L13 18L12 18L12 17L16 17L16 18L18 18L18 17L17 17L17 16L19 16L19 17L20 17L20 16L19 16L19 15L20 15L20 14L21 14L21 15L22 15L22 14L23 14L23 16L26 16L26 17L27 17L27 18L26 18L26 19L25 19L25 20L26 20L26 21L25 21L25 22L22 22L22 20L23 20L23 21L24 21L24 20L23 20L23 19L24 19L24 18L21 18L21 19L22 19L22 20L20 20L20 21L21 21L21 22L19 22L19 21L18 21L18 22L19 22L19 23L21 23L21 22L22 22L22 23L25 23L25 22L26 22L26 24L27 24L27 23L28 23L28 24L29 24L29 25L30 25L30 26L31 26L31 25L32 25L32 24L30 24L30 21L27 21L27 20L28 20L28 19L29 19L29 20L30 20L30 19L29 19L29 18L30 18L30 17L31 17L31 18L32 18L32 16L30 16L30 15L31 15L31 14L32 14L32 13L31 13L31 12L30 12L30 13L28 13L28 14L26 14L26 13L27 13L27 12L26 12L26 10L25 10L25 9L24 9L24 8L23 8L23 9L22 9L22 8L20 8L20 10L19 10L19 11L20 11L20 12L18 12L18 11L16 11L16 13L17 13L17 14L15 14L15 13L14 13L14 12L15 12L15 11L14 11L14 12L13 12L13 13L12 13L12 11L13 11L13 10L12 10L12 9L11 9L11 8ZM29 8L29 9L30 9L30 10L31 10L31 9L32 9L32 10L33 10L33 9L32 9L32 8L31 8L31 9L30 9L30 8ZM10 9L10 11L11 11L11 9ZM16 9L16 10L17 10L17 9ZM21 9L21 10L22 10L22 11L21 11L21 12L22 12L22 13L23 13L23 14L24 14L24 15L25 15L25 10L24 10L24 9L23 9L23 10L22 10L22 9ZM6 10L6 11L5 11L5 12L6 12L6 13L5 13L5 14L6 14L6 15L7 15L7 14L8 14L8 10ZM23 10L23 11L24 11L24 10ZM6 11L6 12L7 12L7 11ZM9 12L9 13L11 13L11 12ZM17 12L17 13L18 13L18 14L20 14L20 13L18 13L18 12ZM23 12L23 13L24 13L24 12ZM6 13L6 14L7 14L7 13ZM14 15L14 16L15 16L15 15ZM16 15L16 16L17 16L17 15ZM26 15L26 16L27 16L27 17L30 17L30 16L27 16L27 15ZM3 16L3 17L4 17L4 16ZM21 16L21 17L22 17L22 16ZM2 18L2 19L1 19L1 20L3 20L3 18ZM19 18L19 19L20 19L20 18ZM5 19L5 20L6 20L6 21L7 21L7 20L6 20L6 19ZM17 19L17 20L18 20L18 19ZM8 20L8 21L9 21L9 20ZM14 20L14 21L15 21L15 20ZM26 21L26 22L27 22L27 21ZM32 21L32 22L33 22L33 21ZM15 22L15 23L14 23L14 24L15 24L15 25L16 25L16 24L15 24L15 23L16 23L16 22ZM9 23L9 25L10 25L10 24L11 24L11 23ZM25 25L25 28L28 28L28 25ZM19 26L19 27L20 27L20 28L19 28L19 29L20 29L20 28L21 28L21 27L20 27L20 26ZM26 26L26 27L27 27L27 26ZM14 27L14 28L15 28L15 27ZM26 29L26 30L27 30L27 29ZM21 31L21 32L22 32L22 31ZM24 31L24 32L27 32L27 31ZM0 0L0 7L7 7L7 0ZM1 1L1 6L6 6L6 1ZM2 2L2 5L5 5L5 2ZM26 0L26 7L33 7L33 0ZM27 1L27 6L32 6L32 1ZM28 2L28 5L31 5L31 2ZM0 26L0 33L7 33L7 26ZM1 27L1 32L6 32L6 27ZM2 28L2 31L5 31L5 28Z" fill="#000000"/></g></g></svg>
