<?xml version="1.0" encoding="UTF-8"?>
<svg xmlns="http://www.w3.org/2000/svg" version="1.1" width="500" height="500" viewBox="0 0 500 500"><rect x="0" y="0" width="500" height="500" fill="#ffffff"/><g transform="scale(15.152)"><g transform="translate(0,0)"><path fill-rule="evenodd" d="M10 0L10 2L11 2L11 0ZM12 0L12 1L13 1L13 2L12 2L12 4L13 4L13 3L14 3L14 4L15 4L15 3L16 3L16 5L15 5L15 6L14 6L14 8L15 8L15 9L12 9L12 7L13 7L13 5L11 5L11 6L10 6L10 4L11 4L11 3L8 3L8 4L9 4L9 5L8 5L8 7L9 7L9 8L6 8L6 9L8 9L8 10L6 10L6 11L9 11L9 9L10 9L10 11L11 11L11 9L12 9L12 10L13 10L13 11L12 11L12 13L13 13L13 12L14 12L14 13L15 13L15 15L14 15L14 16L15 16L15 17L12 17L12 15L13 15L13 14L10 14L10 13L11 13L11 12L8 12L8 13L7 13L7 12L6 12L6 13L5 13L5 12L4 12L4 11L5 11L5 8L0 8L0 10L2 10L2 11L0 11L0 12L2 12L2 13L3 13L3 14L2 14L2 15L0 15L0 16L1 16L1 21L0 21L0 25L1 25L1 22L2 22L2 25L4 25L4 24L3 24L3 23L4 23L4 19L5 19L5 17L4 17L4 16L3 16L3 14L4 14L4 15L5 15L5 16L6 16L6 17L8 17L8 18L9 18L9 17L12 17L12 18L13 18L13 19L12 19L12 21L13 21L13 20L14 20L14 21L15 21L15 20L14 20L14 19L16 19L16 18L15 18L15 17L16 17L16 16L15 16L15 15L16 15L16 14L17 14L17 15L18 15L18 16L17 16L17 18L20 18L20 19L21 19L21 20L20 20L20 21L19 21L19 19L18 19L18 20L16 20L16 21L18 21L18 22L17 22L17 23L18 23L18 24L17 24L17 25L18 25L18 24L20 24L20 25L19 25L19 26L15 26L15 25L16 25L16 24L15 24L15 23L16 23L16 22L15 22L15 23L14 23L14 24L15 24L15 25L12 25L12 23L13 23L13 22L11 22L11 24L10 24L10 26L11 26L11 25L12 25L12 26L13 26L13 27L12 27L12 29L13 29L13 28L14 28L14 29L16 29L16 30L15 30L15 31L14 31L14 32L15 32L15 31L16 31L16 30L18 30L18 31L19 31L19 32L20 32L20 31L19 31L19 30L21 30L21 29L18 29L18 28L17 28L17 27L19 27L19 26L20 26L20 28L22 28L22 27L21 27L21 26L22 26L22 25L21 25L21 24L23 24L23 23L22 23L22 22L25 22L25 24L24 24L24 25L23 25L23 27L24 27L24 30L23 30L23 29L22 29L22 30L23 30L23 33L27 33L27 32L28 32L28 33L29 33L29 32L31 32L31 33L32 33L32 32L31 32L31 31L27 31L27 30L29 30L29 26L30 26L30 28L32 28L32 29L30 29L30 30L33 30L33 27L32 27L32 26L33 26L33 23L30 23L30 24L32 24L32 25L31 25L31 26L30 26L30 25L29 25L29 24L28 24L28 23L27 23L27 24L26 24L26 22L27 22L27 21L30 21L30 22L31 22L31 21L30 21L30 20L31 20L31 19L32 19L32 20L33 20L33 19L32 19L32 18L33 18L33 16L32 16L32 14L33 14L33 13L32 13L32 12L31 12L31 11L30 11L30 12L28 12L28 11L29 11L29 10L28 10L28 8L27 8L27 9L26 9L26 8L25 8L25 6L24 6L24 7L23 7L23 5L24 5L24 4L25 4L25 2L24 2L24 4L23 4L23 3L22 3L22 2L23 2L23 1L24 1L24 0L21 0L21 3L20 3L20 4L18 4L18 3L19 3L19 1L20 1L20 0L19 0L19 1L18 1L18 3L17 3L17 1L16 1L16 0L15 0L15 1L14 1L14 0ZM8 1L8 2L9 2L9 1ZM14 2L14 3L15 3L15 2ZM21 3L21 4L20 4L20 5L18 5L18 4L17 4L17 5L16 5L16 6L15 6L15 8L16 8L16 9L15 9L15 10L16 10L16 11L17 11L17 12L15 12L15 11L14 11L14 12L15 12L15 13L17 13L17 14L18 14L18 13L17 13L17 12L18 12L18 11L19 11L19 12L20 12L20 11L22 11L22 10L23 10L23 11L24 11L24 10L25 10L25 15L24 15L24 14L23 14L23 13L24 13L24 12L23 12L23 13L22 13L22 12L21 12L21 15L22 15L22 14L23 14L23 16L26 16L26 17L27 17L27 18L26 18L26 19L25 19L25 20L26 20L26 21L25 21L25 22L26 22L26 21L27 21L27 20L28 20L28 19L29 19L29 20L30 20L30 19L29 19L29 18L30 18L30 17L31 17L31 18L32 18L32 16L30 16L30 15L31 15L31 14L32 14L32 13L31 13L31 12L30 12L30 13L28 13L28 14L26 14L26 13L27 13L27 12L26 12L26 10L25 10L25 9L24 9L24 8L23 8L23 9L22 9L22 8L21 8L21 9L22 9L22 10L18 10L18 9L20 9L20 5L21 5L21 4L22 4L22 5L23 5L23 4L22 4L22 3ZM9 6L9 7L10 7L10 6ZM11 6L11 7L12 7L12 6ZM16 6L16 7L17 7L17 6ZM18 6L18 7L19 7L19 6ZM21 6L21 7L22 7L22 6ZM10 8L10 9L11 9L11 8ZM17 8L17 9L18 9L18 8ZM29 8L29 9L30 9L30 10L31 10L31 9L32 9L32 10L33 10L33 9L32 9L32 8L31 8L31 9L30 9L30 8ZM3 9L3 10L4 10L4 9ZM23 9L23 10L24 10L24 9ZM2 11L2 12L3 12L3 11ZM0 13L0 14L1 14L1 13ZM4 13L4 14L5 14L5 15L6 15L6 16L7 16L7 15L6 15L6 14L7 14L7 13L6 13L6 14L5 14L5 13ZM19 13L19 17L20 17L20 13ZM9 14L9 16L11 16L11 15L10 15L10 14ZM26 15L26 16L27 16L27 17L30 17L30 16L27 16L27 15ZM2 16L2 18L3 18L3 19L4 19L4 17L3 17L3 16ZM21 16L21 17L22 17L22 16ZM6 18L6 19L7 19L7 18ZM10 18L10 19L11 19L11 18ZM21 18L21 19L22 19L22 20L21 20L21 22L22 22L22 20L23 20L23 21L24 21L24 20L23 20L23 19L24 19L24 18ZM8 19L8 21L7 21L7 20L6 20L6 21L5 21L5 22L6 22L6 23L5 23L5 25L8 25L8 27L9 27L9 28L8 28L8 33L12 33L12 31L13 31L13 30L10 30L10 31L11 31L11 32L9 32L9 28L10 28L10 29L11 29L11 27L9 27L9 23L10 23L10 22L8 22L8 21L11 21L11 20L9 20L9 19ZM2 20L2 21L3 21L3 20ZM6 21L6 22L7 22L7 21ZM32 21L32 22L33 22L33 21ZM19 22L19 23L20 23L20 24L21 24L21 23L20 23L20 22ZM6 23L6 24L8 24L8 23ZM25 25L25 28L28 28L28 25ZM26 26L26 27L27 27L27 26ZM14 27L14 28L15 28L15 27ZM16 28L16 29L17 29L17 28ZM26 29L26 30L27 30L27 29ZM21 31L21 32L22 32L22 31ZM24 31L24 32L27 32L27 31ZM16 32L16 33L18 33L18 32ZM0 0L0 7L7 7L7 0ZM1 1L1 6L6 6L6 1ZM2 2L2 5L5 5L5 2ZM26 0L26 7L33 7L33 0ZM27 1L27 6L32 6L32 1ZM28 2L28 5L31 5L31 2ZM0 26L0 33L7 33L7 26ZM1 27L1 32L6 32L6 27ZM2 28L2 31L5 31L5 28Z" fill="#000000"/></g></g></svg>
