<?xml version="1.0" encoding="UTF-8"?>
<svg xmlns="http://www.w3.org/2000/svg" version="1.1" width="500" height="500" viewBox="0 0 500 500"><rect x="0" y="0" width="500" height="500" fill="#ffffff"/><g transform="scale(15.152)"><g transform="translate(0,0)"><path fill-rule="evenodd" d="M9 0L9 1L8 1L8 2L9 2L9 3L8 3L8 4L10 4L10 7L11 7L11 4L12 4L12 5L13 5L13 6L12 6L12 9L13 9L13 8L14 8L14 9L15 9L15 11L14 11L14 12L15 12L15 13L12 13L12 11L13 11L13 10L11 10L11 11L10 11L10 9L11 9L11 8L6 8L6 9L9 9L9 10L8 10L8 11L7 11L7 10L5 10L5 11L3 11L3 10L4 10L4 9L5 9L5 8L0 8L0 9L2 9L2 10L0 10L0 11L1 11L1 12L5 12L5 13L7 13L7 14L6 14L6 15L7 15L7 14L8 14L8 17L7 17L7 16L4 16L4 15L5 15L5 14L4 14L4 15L3 15L3 17L1 17L1 16L2 16L2 15L0 15L0 25L1 25L1 20L3 20L3 21L2 21L2 22L3 22L3 25L4 25L4 22L5 22L5 25L8 25L8 27L9 27L9 28L8 28L8 33L11 33L11 32L10 32L10 31L11 31L11 30L10 30L10 31L9 31L9 29L12 29L12 30L13 30L13 31L12 31L12 33L13 33L13 32L14 32L14 33L15 33L15 32L16 32L16 31L19 31L19 33L21 33L21 32L22 32L22 31L21 31L21 32L20 32L20 31L19 31L19 30L20 30L20 29L19 29L19 30L17 30L17 29L18 29L18 28L20 28L20 27L19 27L19 23L18 23L18 24L17 24L17 22L20 22L20 23L21 23L21 24L22 24L22 26L21 26L21 25L20 25L20 26L21 26L21 28L24 28L24 29L23 29L23 30L24 30L24 31L23 31L23 33L27 33L27 32L28 32L28 33L29 33L29 32L31 32L31 33L32 33L32 32L31 32L31 31L27 31L27 30L29 30L29 26L30 26L30 28L31 28L31 29L30 29L30 30L33 30L33 28L31 28L31 27L32 27L32 26L33 26L33 23L31 23L31 21L30 21L30 20L31 20L31 19L32 19L32 20L33 20L33 19L32 19L32 18L33 18L33 16L32 16L32 14L33 14L33 13L32 13L32 12L31 12L31 11L30 11L30 12L28 12L28 11L29 11L29 10L28 10L28 8L27 8L27 9L26 9L26 8L25 8L25 5L24 5L24 4L25 4L25 2L22 2L22 0L19 0L19 1L17 1L17 0L16 0L16 1L15 1L15 0L13 0L13 1L11 1L11 2L10 2L10 0ZM23 0L23 1L24 1L24 0ZM13 1L13 2L12 2L12 4L14 4L14 5L16 5L16 6L15 6L15 7L14 7L14 6L13 6L13 7L14 7L14 8L15 8L15 9L17 9L17 8L18 8L18 9L20 9L20 8L21 8L21 9L22 9L22 10L23 10L23 12L25 12L25 16L26 16L26 17L25 17L25 18L26 18L26 19L24 19L24 18L23 18L23 17L24 17L24 16L23 16L23 17L22 17L22 16L21 16L21 15L22 15L22 14L23 14L23 15L24 15L24 14L23 14L23 13L22 13L22 12L20 12L20 10L18 10L18 11L17 11L17 10L16 10L16 11L15 11L15 12L16 12L16 13L15 13L15 14L16 14L16 15L14 15L14 16L13 16L13 17L12 17L12 15L13 15L13 14L12 14L12 13L11 13L11 12L10 12L10 13L11 13L11 16L10 16L10 18L9 18L9 17L8 17L8 21L6 21L6 22L7 22L7 23L6 23L6 24L8 24L8 22L10 22L10 23L9 23L9 26L13 26L13 27L12 27L12 29L15 29L15 30L16 30L16 28L18 28L18 27L17 27L17 26L18 26L18 25L17 25L17 24L16 24L16 25L14 25L14 24L15 24L15 23L14 23L14 24L13 24L13 25L12 25L12 23L13 23L13 22L12 22L12 21L15 21L15 22L17 22L17 20L18 20L18 19L17 19L17 18L18 18L18 17L16 17L16 16L19 16L19 17L21 17L21 19L20 19L20 18L19 18L19 19L20 19L20 20L19 20L19 21L22 21L22 20L21 20L21 19L22 19L22 18L23 18L23 19L24 19L24 20L23 20L23 21L24 21L24 22L21 22L21 23L22 23L22 24L23 24L23 26L22 26L22 27L23 27L23 26L24 26L24 24L26 24L26 23L28 23L28 24L29 24L29 25L30 25L30 26L31 26L31 25L32 25L32 24L30 24L30 23L29 23L29 21L27 21L27 20L28 20L28 19L29 19L29 20L30 20L30 19L29 19L29 18L30 18L30 17L31 17L31 18L32 18L32 16L30 16L30 15L31 15L31 14L32 14L32 13L31 13L31 12L30 12L30 13L28 13L28 14L26 14L26 13L27 13L27 12L26 12L26 10L25 10L25 11L24 11L24 10L23 10L23 9L24 9L24 8L23 8L23 7L24 7L24 5L23 5L23 7L22 7L22 6L21 6L21 7L20 7L20 5L19 5L19 7L18 7L18 5L17 5L17 3L18 3L18 4L19 4L19 3L18 3L18 2L17 2L17 1L16 1L16 2L15 2L15 3L14 3L14 1ZM19 1L19 2L20 2L20 1ZM10 3L10 4L11 4L11 3ZM15 3L15 4L16 4L16 3ZM20 3L20 4L22 4L22 3ZM23 3L23 4L24 4L24 3ZM8 5L8 7L9 7L9 5ZM16 6L16 7L15 7L15 8L17 8L17 6ZM19 7L19 8L20 8L20 7ZM21 7L21 8L22 8L22 9L23 9L23 8L22 8L22 7ZM29 8L29 9L30 9L30 10L31 10L31 9L32 9L32 10L33 10L33 9L32 9L32 8L31 8L31 9L30 9L30 8ZM5 11L5 12L7 12L7 11ZM17 12L17 13L18 13L18 12ZM0 13L0 14L2 14L2 13ZM8 13L8 14L9 14L9 15L10 15L10 14L9 14L9 13ZM19 13L19 14L17 14L17 15L19 15L19 16L20 16L20 15L21 15L21 14L22 14L22 13ZM19 14L19 15L20 15L20 14ZM26 15L26 16L27 16L27 17L26 17L26 18L27 18L27 17L30 17L30 16L27 16L27 15ZM14 16L14 17L15 17L15 16ZM3 17L3 18L2 18L2 19L3 19L3 20L4 20L4 19L3 19L3 18L5 18L5 17ZM6 17L6 18L7 18L7 17ZM10 18L10 19L11 19L11 20L9 20L9 21L12 21L12 19L13 19L13 18ZM15 18L15 19L14 19L14 20L15 20L15 21L16 21L16 20L15 20L15 19L16 19L16 18ZM5 19L5 20L7 20L7 19ZM24 20L24 21L26 21L26 22L24 22L24 23L26 23L26 22L27 22L27 21L26 21L26 20ZM3 21L3 22L4 22L4 21ZM32 21L32 22L33 22L33 21ZM10 23L10 24L11 24L11 23ZM16 25L16 26L15 26L15 27L14 27L14 28L15 28L15 27L16 27L16 26L17 26L17 25ZM25 25L25 28L28 28L28 25ZM26 26L26 27L27 27L27 26ZM10 27L10 28L11 28L11 27ZM21 29L21 30L22 30L22 29ZM24 29L24 30L25 30L25 29ZM26 29L26 30L27 30L27 29ZM14 31L14 32L15 32L15 31ZM24 31L24 32L27 32L27 31ZM17 32L17 33L18 33L18 32ZM0 0L0 7L7 7L7 0ZM1 1L1 6L6 6L6 1ZM2 2L2 5L5 5L5 2ZM26 0L26 7L33 7L33 0ZM27 1L27 6L32 6L32 1ZM28 2L28 5L31 5L31 2ZM0 26L0 33L7 33L7 26ZM1 27L1 32L6 32L6 27ZM2 28L2 31L5 31L5 28Z" fill="#000000"/></g></g></svg>
