<?xml version="1.0" encoding="UTF-8"?>
<svg xmlns="http://www.w3.org/2000/svg" version="1.1" width="500" height="500" viewBox="0 0 500 500"><rect x="0" y="0" width="500" height="500" fill="#ffffff"/><g transform="scale(15.152)"><g transform="translate(0,0)"><path fill-rule="evenodd" d="M8 0L8 1L9 1L9 0ZM10 0L10 2L11 2L11 3L12 3L12 4L13 4L13 6L12 6L12 7L13 7L13 6L14 6L14 7L15 7L15 6L14 6L14 5L16 5L16 8L14 8L14 9L13 9L13 8L12 8L12 9L11 9L11 11L13 11L13 12L12 12L12 14L13 14L13 15L14 15L14 16L13 16L13 17L12 17L12 16L11 16L11 17L10 17L10 14L11 14L11 13L10 13L10 12L9 12L9 10L10 10L10 9L9 9L9 8L10 8L10 7L11 7L11 6L10 6L10 3L9 3L9 2L8 2L8 5L9 5L9 6L8 6L8 7L9 7L9 8L8 8L8 9L9 9L9 10L6 10L6 11L4 11L4 10L5 10L5 9L4 9L4 8L0 8L0 9L2 9L2 10L3 10L3 11L4 11L4 12L5 12L5 13L4 13L4 15L3 15L3 14L2 14L2 13L3 13L3 12L2 12L2 11L0 11L0 16L2 16L2 15L3 15L3 16L4 16L4 17L2 17L2 18L0 18L0 22L3 22L3 20L4 20L4 22L6 22L6 23L8 23L8 24L5 24L5 23L3 23L3 24L2 24L2 23L1 23L1 24L0 24L0 25L1 25L1 24L2 24L2 25L3 25L3 24L4 24L4 25L8 25L8 26L9 26L9 25L10 25L10 27L9 27L9 28L10 28L10 27L11 27L11 25L10 25L10 24L11 24L11 23L13 23L13 24L12 24L12 26L13 26L13 25L14 25L14 26L16 26L16 27L15 27L15 28L16 28L16 29L15 29L15 30L14 30L14 28L11 28L11 30L14 30L14 31L16 31L16 32L17 32L17 33L20 33L20 32L21 32L21 33L22 33L22 32L21 32L21 29L22 29L22 30L23 30L23 31L24 31L24 30L23 30L23 29L29 29L29 30L31 30L31 31L32 31L32 32L33 32L33 31L32 31L32 28L31 28L31 26L32 26L32 25L33 25L33 21L32 21L32 20L30 20L30 18L29 18L29 16L28 16L28 15L27 15L27 16L26 16L26 15L24 15L24 16L23 16L23 14L22 14L22 15L21 15L21 14L20 14L20 12L21 12L21 11L20 11L20 12L19 12L19 14L18 14L18 12L17 12L17 11L15 11L15 9L18 9L18 10L21 10L21 9L22 9L22 8L25 8L25 9L26 9L26 11L25 11L25 10L24 10L24 9L23 9L23 10L22 10L22 11L24 11L24 14L25 14L25 13L26 13L26 14L27 14L27 13L26 13L26 12L27 12L27 10L28 10L28 11L31 11L31 13L30 13L30 12L28 12L28 13L29 13L29 14L30 14L30 17L31 17L31 19L32 19L32 18L33 18L33 17L31 17L31 16L32 16L32 15L31 15L31 13L32 13L32 11L33 11L33 8L32 8L32 11L31 11L31 8L28 8L28 9L26 9L26 8L25 8L25 6L24 6L24 7L23 7L23 5L21 5L21 6L20 6L20 4L21 4L21 3L20 3L20 2L19 2L19 3L17 3L17 2L15 2L15 0L14 0L14 1L13 1L13 3L12 3L12 0ZM16 0L16 1L17 1L17 0ZM18 0L18 1L20 1L20 0ZM21 0L21 1L22 1L22 0ZM23 0L23 2L22 2L22 3L24 3L24 2L25 2L25 0ZM16 3L16 5L18 5L18 6L17 6L17 7L18 7L18 9L19 9L19 7L20 7L20 6L19 6L19 5L18 5L18 4L17 4L17 3ZM24 4L24 5L25 5L25 4ZM9 6L9 7L10 7L10 6ZM18 6L18 7L19 7L19 6ZM21 6L21 8L22 8L22 6ZM6 8L6 9L7 9L7 8ZM3 9L3 10L4 10L4 9ZM12 9L12 10L13 10L13 9ZM28 9L28 10L30 10L30 9ZM6 11L6 12L7 12L7 13L6 13L6 14L8 14L8 15L9 15L9 14L8 14L8 12L7 12L7 11ZM14 11L14 12L15 12L15 11ZM1 12L1 13L2 13L2 12ZM16 12L16 14L15 14L15 15L16 15L16 14L17 14L17 16L15 16L15 17L14 17L14 19L13 19L13 20L12 20L12 18L11 18L11 20L10 20L10 17L9 17L9 16L8 16L8 17L6 17L6 16L7 16L7 15L4 15L4 16L5 16L5 17L4 17L4 18L2 18L2 19L1 19L1 21L2 21L2 20L3 20L3 19L4 19L4 20L5 20L5 18L7 18L7 19L6 19L6 20L7 20L7 21L6 21L6 22L7 22L7 21L8 21L8 20L10 20L10 21L11 21L11 20L12 20L12 22L13 22L13 21L15 21L15 23L14 23L14 25L15 25L15 24L16 24L16 23L17 23L17 24L18 24L18 25L20 25L20 26L21 26L21 27L18 27L18 26L17 26L17 25L16 25L16 26L17 26L17 27L16 27L16 28L19 28L19 30L17 30L17 31L18 31L18 32L19 32L19 31L20 31L20 28L21 28L21 27L22 27L22 29L23 29L23 26L24 26L24 23L23 23L23 21L24 21L24 20L25 20L25 21L27 21L27 22L28 22L28 24L29 24L29 25L30 25L30 26L29 26L29 27L30 27L30 26L31 26L31 25L32 25L32 21L30 21L30 20L29 20L29 18L28 18L28 16L27 16L27 18L26 18L26 17L24 17L24 18L23 18L23 16L22 16L22 17L21 17L21 19L20 19L20 16L19 16L19 15L18 15L18 14L17 14L17 12ZM22 12L22 13L23 13L23 12ZM13 13L13 14L14 14L14 13ZM1 14L1 15L2 15L2 14ZM18 16L18 18L16 18L16 17L15 17L15 19L14 19L14 20L15 20L15 19L16 19L16 22L17 22L17 23L18 23L18 24L20 24L20 25L21 25L21 26L22 26L22 25L21 25L21 23L22 23L22 24L23 24L23 23L22 23L22 21L23 21L23 20L24 20L24 19L25 19L25 20L26 20L26 19L25 19L25 18L24 18L24 19L22 19L22 20L21 20L21 21L20 21L20 20L19 20L19 16ZM8 18L8 19L9 19L9 18ZM27 19L27 20L28 20L28 19ZM17 21L17 22L18 22L18 23L20 23L20 22L19 22L19 21ZM29 21L29 23L30 23L30 21ZM8 22L8 23L10 23L10 22ZM25 22L25 24L27 24L27 23L26 23L26 22ZM8 24L8 25L9 25L9 24ZM25 25L25 28L28 28L28 25ZM26 26L26 27L27 27L27 26ZM8 29L8 33L9 33L9 32L11 32L11 31L10 31L10 30L9 30L9 29ZM25 30L25 32L28 32L28 33L29 33L29 32L28 32L28 31L27 31L27 30ZM12 32L12 33L13 33L13 32ZM14 32L14 33L15 33L15 32ZM23 32L23 33L24 33L24 32ZM30 32L30 33L31 33L31 32ZM0 0L0 7L7 7L7 0ZM1 1L1 6L6 6L6 1ZM2 2L2 5L5 5L5 2ZM26 0L26 7L33 7L33 0ZM27 1L27 6L32 6L32 1ZM28 2L28 5L31 5L31 2ZM0 26L0 33L7 33L7 26ZM1 27L1 32L6 32L6 27ZM2 28L2 31L5 31L5 28Z" fill="#000000"/></g></g></svg>
