<?xml version="1.0" encoding="UTF-8"?>
<svg xmlns="http://www.w3.org/2000/svg" version="1.1" width="500" height="500" viewBox="0 0 500 500"><rect x="0" y="0" width="500" height="500" fill="#ffffff"/><g transform="scale(15.152)"><g transform="translate(0,0)"><path fill-rule="evenodd" d="M9 0L9 1L8 1L8 3L9 3L9 4L8 4L8 8L6 8L6 9L7 9L7 10L3 10L3 9L4 9L4 8L3 8L3 9L2 9L2 8L0 8L0 9L1 9L1 10L0 10L0 13L2 13L2 14L0 14L0 16L1 16L1 17L3 17L3 18L2 18L2 19L3 19L3 20L6 20L6 21L4 21L4 23L5 23L5 24L6 24L6 25L7 25L7 24L6 24L6 23L7 23L7 22L6 22L6 21L7 21L7 20L6 20L6 19L7 19L7 18L4 18L4 17L5 17L5 16L6 16L6 17L11 17L11 18L12 18L12 22L13 22L13 21L14 21L14 23L13 23L13 24L12 24L12 26L10 26L10 27L9 27L9 25L11 25L11 23L10 23L10 24L9 24L9 21L8 21L8 27L9 27L9 29L8 29L8 30L9 30L9 31L8 31L8 33L10 33L10 32L9 32L9 31L10 31L10 27L11 27L11 28L14 28L14 26L13 26L13 25L15 25L15 24L16 24L16 23L15 23L15 21L14 21L14 20L13 20L13 19L15 19L15 20L16 20L16 22L18 22L18 24L17 24L17 25L16 25L16 27L15 27L15 28L16 28L16 29L17 29L17 30L19 30L19 29L21 29L21 33L22 33L22 32L23 32L23 31L24 31L24 30L22 30L22 27L21 27L21 25L22 25L22 26L23 26L23 24L22 24L22 21L24 21L24 19L25 19L25 21L26 21L26 22L25 22L25 23L24 23L24 29L26 29L26 30L25 30L25 32L24 32L24 33L26 33L26 30L27 30L27 31L28 31L28 33L30 33L30 32L29 32L29 30L31 30L31 31L33 31L33 29L29 29L29 27L30 27L30 25L29 25L29 23L28 23L28 22L27 22L27 21L26 21L26 20L27 20L27 19L28 19L28 20L29 20L29 21L30 21L30 23L33 23L33 21L30 21L30 19L32 19L32 20L33 20L33 18L32 18L32 16L31 16L31 18L30 18L30 14L31 14L31 15L32 15L32 14L33 14L33 9L32 9L32 8L30 8L30 9L29 9L29 8L26 8L26 9L25 9L25 6L24 6L24 7L23 7L23 6L22 6L22 7L21 7L21 5L19 5L19 6L18 6L18 4L17 4L17 6L16 6L16 3L19 3L19 2L17 2L17 1L16 1L16 0L15 0L15 2L14 2L14 1L13 1L13 2L12 2L12 0L11 0L11 2L12 2L12 3L11 3L11 5L10 5L10 3L9 3L9 2L10 2L10 0ZM18 0L18 1L20 1L20 2L22 2L22 3L23 3L23 5L24 5L24 4L25 4L25 0L22 0L22 1L21 1L21 0ZM13 2L13 3L12 3L12 4L13 4L13 5L11 5L11 8L10 8L10 5L9 5L9 8L8 8L8 10L7 10L7 11L4 11L4 12L7 12L7 13L6 13L6 14L7 14L7 15L6 15L6 16L7 16L7 15L8 15L8 16L11 16L11 17L12 17L12 16L11 16L11 15L8 15L8 14L12 14L12 12L13 12L13 11L14 11L14 9L13 9L13 8L14 8L14 6L13 6L13 5L14 5L14 2ZM23 2L23 3L24 3L24 2ZM20 3L20 4L21 4L21 3ZM12 6L12 7L13 7L13 6ZM15 6L15 7L16 7L16 8L17 8L17 9L15 9L15 12L14 12L14 13L13 13L13 15L14 15L14 14L15 14L15 15L16 15L16 12L18 12L18 15L19 15L19 16L18 16L18 17L17 17L17 16L15 16L15 19L16 19L16 20L17 20L17 21L19 21L19 22L20 22L20 21L21 21L21 20L20 20L20 19L22 19L22 20L23 20L23 19L24 19L24 18L25 18L25 19L26 19L26 18L27 18L27 17L28 17L28 18L29 18L29 17L28 17L28 16L29 16L29 14L27 14L27 13L25 13L25 14L26 14L26 15L24 15L24 16L22 16L22 17L24 17L24 18L21 18L21 17L19 17L19 16L20 16L20 14L19 14L19 12L21 12L21 11L22 11L22 10L23 10L23 12L22 12L22 13L23 13L23 14L24 14L24 11L25 11L25 10L24 10L24 9L23 9L23 7L22 7L22 9L21 9L21 10L20 10L20 8L21 8L21 7L20 7L20 6L19 6L19 7L18 7L18 6L17 6L17 7L16 7L16 6ZM17 7L17 8L18 8L18 9L17 9L17 11L20 11L20 10L18 10L18 9L19 9L19 8L20 8L20 7L19 7L19 8L18 8L18 7ZM11 8L11 9L12 9L12 10L13 10L13 9L12 9L12 8ZM9 9L9 10L8 10L8 11L7 11L7 12L10 12L10 13L11 13L11 11L9 11L9 10L10 10L10 9ZM28 9L28 10L27 10L27 11L26 11L26 12L27 12L27 11L28 11L28 10L29 10L29 12L28 12L28 13L29 13L29 12L30 12L30 13L31 13L31 14L32 14L32 13L31 13L31 9L30 9L30 10L29 10L29 9ZM1 10L1 11L2 11L2 13L3 13L3 14L2 14L2 16L3 16L3 17L4 17L4 16L5 16L5 13L3 13L3 11L2 11L2 10ZM3 14L3 16L4 16L4 14ZM21 14L21 15L22 15L22 14ZM27 15L27 16L26 16L26 17L27 17L27 16L28 16L28 15ZM13 16L13 17L14 17L14 16ZM16 17L16 18L17 18L17 20L19 20L19 17L18 17L18 18L17 18L17 17ZM0 18L0 21L1 21L1 22L0 22L0 23L1 23L1 24L0 24L0 25L1 25L1 24L3 24L3 25L4 25L4 24L3 24L3 22L2 22L2 20L1 20L1 18ZM8 18L8 19L10 19L10 18ZM10 20L10 21L11 21L11 20ZM5 22L5 23L6 23L6 22ZM20 23L20 24L18 24L18 25L21 25L21 23ZM25 23L25 24L26 24L26 23ZM27 23L27 24L28 24L28 23ZM25 25L25 28L28 28L28 25ZM31 25L31 28L32 28L32 26L33 26L33 25ZM18 26L18 27L20 27L20 28L21 28L21 27L20 27L20 26ZM26 26L26 27L27 27L27 26ZM16 27L16 28L17 28L17 29L19 29L19 28L17 28L17 27ZM11 29L11 30L15 30L15 29ZM14 31L14 32L13 32L13 33L15 33L15 32L16 32L16 31ZM17 31L17 32L18 32L18 31ZM19 31L19 32L20 32L20 31ZM11 32L11 33L12 33L12 32ZM31 32L31 33L32 33L32 32ZM0 0L0 7L7 7L7 0ZM1 1L1 6L6 6L6 1ZM2 2L2 5L5 5L5 2ZM26 0L26 7L33 7L33 0ZM27 1L27 6L32 6L32 1ZM28 2L28 5L31 5L31 2ZM0 26L0 33L7 33L7 26ZM1 27L1 32L6 32L6 27ZM2 28L2 31L5 31L5 28Z" fill="#000000"/></g></g></svg>
