<?xml version="1.0" encoding="UTF-8"?>
<svg xmlns="http://www.w3.org/2000/svg" version="1.1" width="500" height="500" viewBox="0 0 500 500"><rect x="0" y="0" width="500" height="500" fill="#ffffff"/><g transform="scale(15.152)"><g transform="translate(0,0)"><path fill-rule="evenodd" d="M8 0L8 1L9 1L9 0ZM13 0L13 1L12 1L12 2L11 2L11 1L10 1L10 2L9 2L9 3L10 3L10 4L11 4L11 3L12 3L12 5L11 5L11 6L10 6L10 5L9 5L9 6L8 6L8 8L9 8L9 9L10 9L10 10L8 10L8 9L7 9L7 8L6 8L6 9L5 9L5 8L3 8L3 9L4 9L4 10L2 10L2 12L1 12L1 11L0 11L0 16L1 16L1 17L4 17L4 16L5 16L5 18L1 18L1 19L0 19L0 20L1 20L1 21L0 21L0 25L2 25L2 24L1 24L1 22L2 22L2 23L3 23L3 24L4 24L4 25L7 25L7 24L6 24L6 23L8 23L8 24L9 24L9 22L10 22L10 23L11 23L11 24L10 24L10 25L11 25L11 26L12 26L12 27L13 27L13 26L15 26L15 27L14 27L14 28L13 28L13 29L14 29L14 28L15 28L15 31L16 31L16 32L14 32L14 30L13 30L13 31L12 31L12 30L11 30L11 32L14 32L14 33L16 33L16 32L17 32L17 33L18 33L18 32L19 32L19 33L20 33L20 32L21 32L21 31L20 31L20 30L21 30L21 27L22 27L22 28L23 28L23 29L22 29L22 31L23 31L23 33L25 33L25 31L23 31L23 30L26 30L26 29L30 29L30 28L31 28L31 29L32 29L32 28L33 28L33 27L32 27L32 28L31 28L31 27L29 27L29 25L30 25L30 26L31 26L31 25L32 25L32 24L33 24L33 22L32 22L32 23L31 23L31 22L30 22L30 21L28 21L28 19L30 19L30 20L31 20L31 21L32 21L32 19L33 19L33 17L32 17L32 19L30 19L30 18L31 18L31 17L30 17L30 18L29 18L29 15L28 15L28 14L27 14L27 11L29 11L29 12L31 12L31 11L30 11L30 10L31 10L31 9L30 9L30 10L29 10L29 9L28 9L28 10L26 10L26 13L25 13L25 12L24 12L24 9L25 9L25 8L24 8L24 9L21 9L21 6L22 6L22 8L23 8L23 6L24 6L24 7L25 7L25 5L22 5L22 4L23 4L23 3L25 3L25 2L21 2L21 6L20 6L20 8L19 8L19 5L20 5L20 1L23 1L23 0L20 0L20 1L19 1L19 0L17 0L17 2L16 2L16 4L19 4L19 5L18 5L18 8L17 8L17 5L16 5L16 9L15 9L15 8L14 8L14 7L15 7L15 6L14 6L14 7L13 7L13 5L15 5L15 4L14 4L14 3L15 3L15 1L14 1L14 0ZM24 0L24 1L25 1L25 0ZM13 1L13 2L14 2L14 1ZM10 2L10 3L11 3L11 2ZM17 2L17 3L18 3L18 2ZM9 6L9 7L10 7L10 9L12 9L12 11L13 11L13 13L12 13L12 14L11 14L11 16L10 16L10 17L8 17L8 16L9 16L9 14L7 14L7 13L9 13L9 12L11 12L11 10L10 10L10 11L8 11L8 10L7 10L7 9L6 9L6 10L7 10L7 11L3 11L3 12L2 12L2 13L3 13L3 15L4 15L4 12L5 12L5 15L6 15L6 16L7 16L7 17L6 17L6 18L7 18L7 17L8 17L8 18L9 18L9 19L5 19L5 21L4 21L4 20L3 20L3 19L2 19L2 21L3 21L3 22L4 22L4 24L5 24L5 21L6 21L6 22L8 22L8 21L9 21L9 20L10 20L10 17L11 17L11 18L13 18L13 19L12 19L12 20L13 20L13 21L12 21L12 23L13 23L13 25L12 25L12 26L13 26L13 25L14 25L14 24L16 24L16 26L17 26L17 28L18 28L18 29L17 29L17 30L16 30L16 31L17 31L17 32L18 32L18 31L19 31L19 32L20 32L20 31L19 31L19 29L20 29L20 27L19 27L19 26L21 26L21 25L22 25L22 27L23 27L23 25L22 25L22 23L23 23L23 22L22 22L22 20L23 20L23 21L26 21L26 22L24 22L24 24L25 24L25 23L26 23L26 24L27 24L27 23L28 23L28 24L29 24L29 22L27 22L27 19L28 19L28 17L27 17L27 19L25 19L25 20L24 20L24 19L23 19L23 18L24 18L24 17L25 17L25 16L24 16L24 14L25 14L25 15L27 15L27 16L28 16L28 15L27 15L27 14L25 14L25 13L24 13L24 14L23 14L23 11L21 11L21 9L20 9L20 10L19 10L19 11L21 11L21 13L20 13L20 12L17 12L17 13L16 13L16 14L17 14L17 15L12 15L12 14L13 14L13 13L15 13L15 11L13 11L13 9L14 9L14 10L15 10L15 9L14 9L14 8L11 8L11 7L12 7L12 6L11 6L11 7L10 7L10 6ZM0 8L0 9L2 9L2 8ZM26 8L26 9L27 9L27 8ZM32 8L32 9L33 9L33 8ZM17 9L17 10L16 10L16 11L18 11L18 9ZM32 10L32 11L33 11L33 10ZM7 11L7 12L6 12L6 13L7 13L7 12L8 12L8 11ZM32 12L32 13L31 13L31 14L32 14L32 13L33 13L33 12ZM18 13L18 14L19 14L19 16L20 16L20 17L19 17L19 18L18 18L18 17L17 17L17 18L18 18L18 19L19 19L19 22L17 22L17 23L16 23L16 21L18 21L18 20L17 20L17 19L16 19L16 16L11 16L11 17L15 17L15 18L14 18L14 19L13 19L13 20L15 20L15 22L14 22L14 21L13 21L13 23L16 23L16 24L18 24L18 23L19 23L19 22L20 22L20 24L19 24L19 25L20 25L20 24L21 24L21 22L20 22L20 18L21 18L21 16L20 16L20 15L23 15L23 14L19 14L19 13ZM6 14L6 15L7 15L7 16L8 16L8 15L7 15L7 14ZM30 15L30 16L33 16L33 15ZM23 16L23 17L24 17L24 16ZM15 19L15 20L16 20L16 19ZM6 20L6 21L7 21L7 20ZM10 21L10 22L11 22L11 21ZM26 22L26 23L27 23L27 22ZM30 24L30 25L31 25L31 24ZM8 25L8 26L9 26L9 28L8 28L8 30L9 30L9 31L8 31L8 33L9 33L9 32L10 32L10 30L9 30L9 29L12 29L12 28L11 28L11 27L10 27L10 26L9 26L9 25ZM25 25L25 28L28 28L28 25ZM26 26L26 27L27 27L27 26ZM15 27L15 28L16 28L16 27ZM17 30L17 31L18 31L18 30ZM28 30L28 31L26 31L26 32L27 32L27 33L29 33L29 32L33 32L33 30L32 30L32 31L30 31L30 30ZM28 31L28 32L29 32L29 31ZM0 0L0 7L7 7L7 0ZM1 1L1 6L6 6L6 1ZM2 2L2 5L5 5L5 2ZM26 0L26 7L33 7L33 0ZM27 1L27 6L32 6L32 1ZM28 2L28 5L31 5L31 2ZM0 26L0 33L7 33L7 26ZM1 27L1 32L6 32L6 27ZM2 28L2 31L5 31L5 28Z" fill="#000000"/></g></g></svg>
