<?xml version="1.0" encoding="UTF-8"?>
<svg xmlns="http://www.w3.org/2000/svg" version="1.1" width="500" height="500" viewBox="0 0 500 500"><rect x="0" y="0" width="500" height="500" fill="#ffffff"/><g transform="scale(17.241)"><g transform="translate(0,0)"><path fill-rule="evenodd" d="M9 0L9 1L8 1L8 2L9 2L9 3L8 3L8 4L9 4L9 3L10 3L10 5L8 5L8 7L9 7L9 8L6 8L6 9L5 9L5 8L0 8L0 10L1 10L1 9L2 9L2 10L4 10L4 11L3 11L3 12L4 12L4 13L3 13L3 14L2 14L2 15L0 15L0 16L2 16L2 17L3 17L3 18L2 18L2 19L4 19L4 20L5 20L5 21L8 21L8 23L9 23L9 21L8 21L8 15L7 15L7 14L8 14L8 13L7 13L7 12L9 12L9 14L10 14L10 13L11 13L11 14L12 14L12 15L10 15L10 16L9 16L9 20L10 20L10 21L11 21L11 22L12 22L12 23L10 23L10 24L8 24L8 29L9 29L9 27L10 27L10 26L9 26L9 25L10 25L10 24L11 24L11 26L12 26L12 24L13 24L13 25L14 25L14 26L13 26L13 27L12 27L12 28L10 28L10 29L15 29L15 27L16 27L16 28L17 28L17 29L18 29L18 28L17 28L17 27L18 27L18 26L19 26L19 29L20 29L20 28L21 28L21 29L23 29L23 28L22 28L22 27L25 27L25 26L27 26L27 28L26 28L26 29L27 29L27 28L28 28L28 26L29 26L29 25L28 25L28 26L27 26L27 24L28 24L28 23L27 23L27 22L26 22L26 21L28 21L28 22L29 22L29 19L28 19L28 18L29 18L29 17L28 17L28 16L29 16L29 15L27 15L27 14L29 14L29 12L26 12L26 13L27 13L27 14L26 14L26 15L27 15L27 16L25 16L25 13L22 13L22 12L21 12L21 11L20 11L20 12L19 12L19 13L18 13L18 12L16 12L16 13L18 13L18 15L19 15L19 16L20 16L20 15L19 15L19 14L21 14L21 17L19 17L19 18L20 18L20 19L21 19L21 20L20 20L20 22L19 22L19 21L18 21L18 20L19 20L19 19L18 19L18 20L16 20L16 19L17 19L17 18L14 18L14 16L13 16L13 15L14 15L14 14L13 14L13 13L14 13L14 12L15 12L15 11L16 11L16 10L15 10L15 9L16 9L16 8L15 8L15 6L16 6L16 7L17 7L17 6L18 6L18 8L17 8L17 9L18 9L18 10L17 10L17 11L19 11L19 10L23 10L23 12L24 12L24 11L25 11L25 10L26 10L26 8L25 8L25 9L24 9L24 8L23 8L23 9L22 9L22 8L21 8L21 9L18 9L18 8L19 8L19 5L20 5L20 7L21 7L21 5L20 5L20 4L19 4L19 3L20 3L20 2L18 2L18 3L10 3L10 2L9 2L9 1L10 1L10 0ZM11 0L11 1L12 1L12 2L17 2L17 1L20 1L20 0L16 0L16 1L14 1L14 0ZM12 4L12 5L11 5L11 7L12 7L12 5L13 5L13 4ZM14 4L14 5L16 5L16 6L17 6L17 5L18 5L18 4L17 4L17 5L16 5L16 4ZM9 6L9 7L10 7L10 6ZM13 6L13 8L14 8L14 6ZM10 8L10 9L6 9L6 10L9 10L9 12L11 12L11 11L12 11L12 10L11 10L11 9L12 9L12 8ZM27 8L27 10L29 10L29 9L28 9L28 8ZM4 9L4 10L5 10L5 9ZM13 9L13 10L14 10L14 9ZM10 10L10 11L11 11L11 10ZM6 11L6 12L5 12L5 13L4 13L4 14L3 14L3 15L2 15L2 16L4 16L4 19L5 19L5 17L6 17L6 18L7 18L7 17L6 17L6 16L7 16L7 15L5 15L5 16L4 16L4 14L7 14L7 13L6 13L6 12L7 12L7 11ZM13 11L13 12L12 12L12 13L13 13L13 12L14 12L14 11ZM0 12L0 13L1 13L1 12ZM20 12L20 13L21 13L21 12ZM15 14L15 15L16 15L16 14ZM22 14L22 15L23 15L23 16L22 16L22 17L21 17L21 18L22 18L22 17L25 17L25 18L23 18L23 19L24 19L24 20L28 20L28 19L26 19L26 17L25 17L25 16L24 16L24 15L23 15L23 14ZM10 16L10 18L11 18L11 21L12 21L12 22L14 22L14 23L13 23L13 24L18 24L18 25L17 25L17 26L18 26L18 25L19 25L19 26L20 26L20 27L21 27L21 25L20 25L20 24L19 24L19 22L18 22L18 21L17 21L17 22L16 22L16 20L15 20L15 19L14 19L14 18L11 18L11 17L12 17L12 16ZM15 16L15 17L16 17L16 16ZM17 16L17 17L18 17L18 16ZM0 17L0 21L1 21L1 17ZM6 19L6 20L7 20L7 19ZM2 20L2 21L3 21L3 20ZM12 20L12 21L14 21L14 20ZM21 21L21 24L24 24L24 21ZM15 22L15 23L16 23L16 22ZM22 22L22 23L23 23L23 22ZM25 23L25 25L22 25L22 26L25 26L25 25L26 25L26 24L27 24L27 23ZM15 25L15 26L14 26L14 27L13 27L13 28L14 28L14 27L15 27L15 26L16 26L16 25ZM24 28L24 29L25 29L25 28ZM0 0L0 7L7 7L7 0ZM1 1L1 6L6 6L6 1ZM2 2L2 5L5 5L5 2ZM22 0L22 7L29 7L29 0ZM23 1L23 6L28 6L28 1ZM24 2L24 5L27 5L27 2ZM0 22L0 29L7 29L7 22ZM1 23L1 28L6 28L6 23ZM2 24L2 27L5 27L5 24Z" fill="#000000"/></g></g></svg>
