<?xml version="1.0" encoding="UTF-8"?>
<svg xmlns="http://www.w3.org/2000/svg" version="1.1" width="500" height="500" viewBox="0 0 500 500"><rect x="0" y="0" width="500" height="500" fill="#ffffff"/><g transform="scale(15.152)"><g transform="translate(0,0)"><path fill-rule="evenodd" d="M8 0L8 4L10 4L10 3L11 3L11 4L12 4L12 2L11 2L11 0ZM12 0L12 1L13 1L13 0ZM14 0L14 1L15 1L15 0ZM18 0L18 1L19 1L19 2L20 2L20 3L22 3L22 2L23 2L23 5L22 5L22 4L21 4L21 5L19 5L19 4L18 4L18 5L17 5L17 4L15 4L15 3L16 3L16 2L17 2L17 3L18 3L18 2L17 2L17 1L16 1L16 2L15 2L15 3L14 3L14 2L13 2L13 3L14 3L14 4L13 4L13 5L11 5L11 6L10 6L10 7L9 7L9 5L8 5L8 7L9 7L9 8L10 8L10 7L11 7L11 6L12 6L12 8L11 8L11 9L8 9L8 10L6 10L6 9L7 9L7 8L4 8L4 9L2 9L2 8L0 8L0 10L1 10L1 9L2 9L2 10L4 10L4 11L5 11L5 13L3 13L3 12L2 12L2 11L0 11L0 12L2 12L2 13L1 13L1 14L5 14L5 15L4 15L4 16L3 16L3 15L2 15L2 17L4 17L4 18L5 18L5 20L6 20L6 21L7 21L7 22L6 22L6 23L7 23L7 24L6 24L6 25L7 25L7 24L8 24L8 26L9 26L9 24L10 24L10 25L12 25L12 26L10 26L10 27L8 27L8 29L9 29L9 30L10 30L10 31L8 31L8 33L9 33L9 32L10 32L10 33L12 33L12 32L13 32L13 33L15 33L15 31L16 31L16 32L17 32L17 33L20 33L20 31L21 31L21 33L23 33L23 32L24 32L24 33L27 33L27 32L26 32L26 31L27 31L27 29L28 29L28 32L29 32L29 31L31 31L31 30L30 30L30 29L29 29L29 27L31 27L31 29L32 29L32 28L33 28L33 27L32 27L32 26L31 26L31 25L32 25L32 24L33 24L33 23L31 23L31 25L30 25L30 26L29 26L29 24L30 24L30 21L29 21L29 20L30 20L30 18L28 18L28 21L27 21L27 20L26 20L26 17L27 17L27 16L28 16L28 17L30 17L30 15L31 15L31 19L32 19L32 20L31 20L31 22L32 22L32 21L33 21L33 19L32 19L32 13L33 13L33 12L32 12L32 13L31 13L31 14L29 14L29 15L28 15L28 14L27 14L27 16L26 16L26 17L25 17L25 16L24 16L24 17L23 17L23 18L22 18L22 19L20 19L20 20L21 20L21 22L20 22L20 21L18 21L18 20L19 20L19 19L16 19L16 17L18 17L18 15L17 15L17 16L16 16L16 17L15 17L15 15L16 15L16 13L18 13L18 14L19 14L19 13L20 13L20 16L19 16L19 17L20 17L20 16L21 16L21 17L22 17L22 15L26 15L26 14L24 14L24 13L25 13L25 12L24 12L24 11L25 11L25 10L26 10L26 9L25 9L25 10L24 10L24 9L23 9L23 8L25 8L25 5L24 5L24 3L25 3L25 2L23 2L23 1L24 1L24 0L23 0L23 1L21 1L21 2L20 2L20 1L19 1L19 0ZM9 2L9 3L10 3L10 2ZM15 5L15 9L13 9L13 8L14 8L14 6L13 6L13 8L12 8L12 9L11 9L11 10L8 10L8 11L6 11L6 12L7 12L7 13L5 13L5 14L7 14L7 15L6 15L6 16L7 16L7 17L5 17L5 16L4 16L4 17L5 17L5 18L7 18L7 19L6 19L6 20L7 20L7 21L9 21L9 22L8 22L8 23L9 23L9 22L10 22L10 23L11 23L11 24L12 24L12 25L13 25L13 26L15 26L15 25L16 25L16 26L17 26L17 27L18 27L18 29L16 29L16 30L18 30L18 29L19 29L19 31L20 31L20 30L22 30L22 32L23 32L23 30L24 30L24 31L25 31L25 30L26 30L26 29L24 29L24 28L23 28L23 29L21 29L21 27L22 27L22 26L23 26L23 27L24 27L24 25L23 25L23 24L22 24L22 25L21 25L21 24L20 24L20 22L18 22L18 23L19 23L19 24L18 24L18 26L17 26L17 24L16 24L16 23L15 23L15 22L13 22L13 21L12 21L12 20L13 20L13 19L12 19L12 20L10 20L10 18L9 18L9 17L10 17L10 16L12 16L12 17L11 17L11 18L12 18L12 17L13 17L13 18L15 18L15 17L13 17L13 16L14 16L14 15L15 15L15 14L13 14L13 13L12 13L12 12L13 12L13 11L12 11L12 12L11 12L11 13L10 13L10 11L11 11L11 10L12 10L12 9L13 9L13 10L15 10L15 9L16 9L16 10L17 10L17 8L16 8L16 6L17 6L17 7L18 7L18 8L20 8L20 9L19 9L19 11L18 11L18 12L20 12L20 13L21 13L21 11L22 11L22 9L21 9L21 7L22 7L22 8L23 8L23 7L24 7L24 5L23 5L23 7L22 7L22 6L21 6L21 7L20 7L20 6L19 6L19 7L18 7L18 6L17 6L17 5ZM27 8L27 9L28 9L28 8ZM29 8L29 9L30 9L30 10L29 10L29 12L28 12L28 10L27 10L27 11L26 11L26 13L30 13L30 11L31 11L31 10L32 10L32 9L33 9L33 8ZM4 9L4 10L5 10L5 9ZM20 9L20 10L21 10L21 9ZM8 11L8 14L10 14L10 13L9 13L9 11ZM14 11L14 13L16 13L16 12L15 12L15 11ZM23 12L23 13L24 13L24 12ZM9 15L9 16L8 16L8 17L9 17L9 16L10 16L10 15ZM12 15L12 16L13 16L13 15ZM0 17L0 20L1 20L1 17ZM24 17L24 19L23 19L23 20L22 20L22 21L24 21L24 20L25 20L25 22L24 22L24 23L27 23L27 24L29 24L29 23L28 23L28 22L29 22L29 21L28 21L28 22L27 22L27 21L26 21L26 20L25 20L25 17ZM3 19L3 20L4 20L4 19ZM8 19L8 20L9 20L9 19ZM14 19L14 21L16 21L16 22L17 22L17 21L16 21L16 20L15 20L15 19ZM0 21L0 22L2 22L2 24L0 24L0 25L2 25L2 24L5 24L5 21ZM10 21L10 22L11 22L11 21ZM3 22L3 23L4 23L4 22ZM21 22L21 23L22 23L22 22ZM12 23L12 24L13 24L13 25L15 25L15 23L14 23L14 24L13 24L13 23ZM19 24L19 25L20 25L20 24ZM25 25L25 28L28 28L28 25ZM20 26L20 27L21 27L21 26ZM26 26L26 27L27 27L27 26ZM10 27L10 28L9 28L9 29L10 29L10 30L11 30L11 31L10 31L10 32L12 32L12 31L13 31L13 32L14 32L14 31L15 31L15 30L13 30L13 29L12 29L12 28L13 28L13 27L12 27L12 28L11 28L11 27ZM14 27L14 29L15 29L15 28L16 28L16 27ZM19 28L19 29L20 29L20 28ZM32 32L32 33L33 33L33 32ZM0 0L0 7L7 7L7 0ZM1 1L1 6L6 6L6 1ZM2 2L2 5L5 5L5 2ZM26 0L26 7L33 7L33 0ZM27 1L27 6L32 6L32 1ZM28 2L28 5L31 5L31 2ZM0 26L0 33L7 33L7 26ZM1 27L1 32L6 32L6 27ZM2 28L2 31L5 31L5 28Z" fill="#000000"/></g></g></svg>
