<?xml version="1.0" encoding="UTF-8"?>
<svg xmlns="http://www.w3.org/2000/svg" version="1.1" width="500" height="500" viewBox="0 0 500 500"><rect x="0" y="0" width="500" height="500" fill="#ffffff"/><g transform="scale(15.152)"><g transform="translate(0,0)"><path fill-rule="evenodd" d="M9 0L9 1L8 1L8 2L9 2L9 3L8 3L8 4L10 4L10 7L11 7L11 4L12 4L12 5L13 5L13 6L12 6L12 9L13 9L13 8L14 8L14 9L18 9L18 10L15 10L15 11L14 11L14 12L15 12L15 13L12 13L12 11L13 11L13 10L11 10L11 11L10 11L10 9L11 9L11 8L6 8L6 9L5 9L5 8L0 8L0 12L4 12L4 10L6 10L6 11L7 11L7 12L5 12L5 13L7 13L7 14L6 14L6 15L5 15L5 14L4 14L4 13L3 13L3 17L2 17L2 16L1 16L1 17L0 17L0 19L1 19L1 17L2 17L2 18L3 18L3 17L4 17L4 19L2 19L2 20L0 20L0 25L1 25L1 21L3 21L3 23L2 23L2 24L3 24L3 25L4 25L4 24L5 24L5 23L8 23L8 27L9 27L9 28L8 28L8 33L10 33L10 31L9 31L9 28L11 28L11 29L12 29L12 30L13 30L13 31L12 31L12 33L13 33L13 32L14 32L14 33L16 33L16 32L17 32L17 33L18 33L18 32L19 32L19 30L20 30L20 32L22 32L22 33L23 33L23 32L24 32L24 33L25 33L25 32L26 32L26 31L27 31L27 30L30 30L30 29L29 29L29 28L31 28L31 30L33 30L33 28L31 28L31 27L32 27L32 26L33 26L33 23L31 23L31 22L30 22L30 21L29 21L29 20L27 20L27 21L26 21L26 18L28 18L28 17L30 17L30 16L32 16L32 18L29 18L29 19L30 19L30 20L31 20L31 19L32 19L32 20L33 20L33 19L32 19L32 18L33 18L33 16L32 16L32 14L33 14L33 13L32 13L32 12L31 12L31 11L30 11L30 12L29 12L29 10L28 10L28 8L27 8L27 9L26 9L26 8L25 8L25 6L24 6L24 9L23 9L23 5L24 5L24 4L23 4L23 1L24 1L24 2L25 2L25 1L24 1L24 0L23 0L23 1L22 1L22 0L18 0L18 1L21 1L21 3L20 3L20 4L18 4L18 3L17 3L17 4L18 4L18 5L20 5L20 4L21 4L21 5L22 5L22 7L21 7L21 6L20 6L20 7L21 7L21 8L20 8L20 9L19 9L19 6L18 6L18 8L17 8L17 5L14 5L14 4L12 4L12 2L13 2L13 1L14 1L14 3L15 3L15 4L16 4L16 3L15 3L15 2L16 2L16 1L17 1L17 0L16 0L16 1L15 1L15 0L13 0L13 1L11 1L11 2L10 2L10 0ZM10 3L10 4L11 4L11 3ZM21 3L21 4L22 4L22 5L23 5L23 4L22 4L22 3ZM8 5L8 7L9 7L9 5ZM13 6L13 7L14 7L14 8L15 8L15 7L16 7L16 6L15 6L15 7L14 7L14 6ZM21 8L21 9L20 9L20 10L19 10L19 13L20 13L20 10L21 10L21 11L22 11L22 10L23 10L23 11L25 11L25 12L26 12L26 13L28 13L28 14L29 14L29 15L28 15L28 16L30 16L30 15L31 15L31 14L32 14L32 13L31 13L31 12L30 12L30 13L28 13L28 12L26 12L26 11L27 11L27 10L26 10L26 9L24 9L24 10L23 10L23 9L22 9L22 8ZM29 8L29 9L30 9L30 10L31 10L31 9L32 9L32 10L33 10L33 9L32 9L32 8L31 8L31 9L30 9L30 8ZM1 9L1 11L3 11L3 10L2 10L2 9ZM6 9L6 10L7 10L7 9ZM8 9L8 10L9 10L9 9ZM15 11L15 12L16 12L16 11ZM17 11L17 12L18 12L18 11ZM10 12L10 13L9 13L9 15L6 15L6 16L5 16L5 15L4 15L4 17L5 17L5 18L8 18L8 16L10 16L10 15L11 15L11 18L10 18L10 17L9 17L9 18L10 18L10 21L11 21L11 24L10 24L10 22L9 22L9 20L7 20L7 19L6 19L6 20L5 20L5 19L4 19L4 20L3 20L3 21L4 21L4 22L5 22L5 21L6 21L6 22L7 22L7 21L8 21L8 23L9 23L9 24L10 24L10 26L9 26L9 27L11 27L11 26L13 26L13 27L12 27L12 29L15 29L15 30L17 30L17 28L18 28L18 30L19 30L19 29L20 29L20 28L21 28L21 29L22 29L22 30L21 30L21 31L22 31L22 32L23 32L23 31L24 31L24 32L25 32L25 31L24 31L24 30L25 30L25 29L24 29L24 27L23 27L23 26L24 26L24 24L23 24L23 23L24 23L24 22L23 22L23 20L25 20L25 19L24 19L24 18L22 18L22 16L23 16L23 17L24 17L24 16L23 16L23 15L24 15L24 14L25 14L25 13L24 13L24 12L23 12L23 13L24 13L24 14L17 14L17 13L15 13L15 14L17 14L17 15L16 15L16 16L18 16L18 15L19 15L19 16L20 16L20 15L22 15L22 16L21 16L21 18L22 18L22 19L23 19L23 20L21 20L21 21L22 21L22 22L21 22L21 23L20 23L20 22L19 22L19 21L20 21L20 17L19 17L19 20L18 20L18 19L17 19L17 18L18 18L18 17L14 17L14 16L15 16L15 15L14 15L14 16L13 16L13 17L12 17L12 15L13 15L13 14L12 14L12 13L11 13L11 12ZM21 12L21 13L22 13L22 12ZM1 13L1 15L2 15L2 13ZM10 13L10 14L11 14L11 13ZM26 14L26 15L25 15L25 16L26 16L26 17L25 17L25 18L26 18L26 17L27 17L27 14ZM6 16L6 17L7 17L7 16ZM11 18L11 21L12 21L12 22L13 22L13 23L12 23L12 25L13 25L13 24L14 24L14 25L15 25L15 24L14 24L14 23L16 23L16 22L15 22L15 21L16 21L16 20L15 20L15 19L16 19L16 18L15 18L15 19L14 19L14 20L15 20L15 21L12 21L12 19L13 19L13 18ZM6 20L6 21L7 21L7 20ZM17 20L17 21L18 21L18 20ZM27 21L27 22L25 22L25 23L27 23L27 24L28 24L28 23L29 23L29 27L31 27L31 26L30 26L30 25L32 25L32 24L30 24L30 22L29 22L29 21ZM32 21L32 22L33 22L33 21ZM17 22L17 23L19 23L19 22ZM21 23L21 24L20 24L20 25L18 25L18 24L16 24L16 25L17 25L17 26L18 26L18 27L19 27L19 28L20 28L20 27L21 27L21 28L22 28L22 27L21 27L21 24L22 24L22 23ZM6 24L6 25L7 25L7 24ZM22 25L22 26L23 26L23 25ZM25 25L25 28L28 28L28 25ZM15 26L15 27L14 27L14 28L15 28L15 29L16 29L16 28L15 28L15 27L16 27L16 26ZM19 26L19 27L20 27L20 26ZM26 26L26 27L27 27L27 26ZM26 29L26 30L27 30L27 29ZM14 31L14 32L15 32L15 31ZM17 31L17 32L18 32L18 31ZM29 31L29 32L31 32L31 33L32 33L32 32L31 32L31 31ZM27 32L27 33L28 33L28 32ZM0 0L0 7L7 7L7 0ZM1 1L1 6L6 6L6 1ZM2 2L2 5L5 5L5 2ZM26 0L26 7L33 7L33 0ZM27 1L27 6L32 6L32 1ZM28 2L28 5L31 5L31 2ZM0 26L0 33L7 33L7 26ZM1 27L1 32L6 32L6 27ZM2 28L2 31L5 31L5 28Z" fill="#000000"/></g></g></svg>
